<?xml version="1.0" encoding="utf-8"?>
<!-- Generator: Adobe Illustrator 19.0.0, SVG Export Plug-In . SVG Version: 6.00 Build 0)  -->
<svg version="1.1" id="Layer_1" xmlns="http://www.w3.org/2000/svg" xmlns:xlink="http://www.w3.org/1999/xlink" x="0px" y="0px"
	 viewBox="0 0 998 296" style="enable-background:new 0 0 998 296;" xml:space="preserve">
<g id="XMLID_82_">
	<g id="XMLID_97_">
		<path id="XMLID_99_" d="M174,211.1c0-28.6-2.2-56.5-3.4-84.9c-1-22.6-1.8-44.8-2.6-67.6c-0.2-6.3-1-12.3-0.6-18.5
			c0.2-4.4-1.4-12.5,0-16.5c2.5-7.5,15.9-6.2,22.5-6.6c26.3-1.8,55.6-1.4,81.8,1.7c7.8,0.9,25.5,2.2,32,7.3
			c6.7,5.3,5.2,22.3,5.3,30.3c0.1,3.7-4.3,31.9-0.4,33.6c5.3,2.3,14.9-20.7,18.3-25.4c12.9-17.9,35.7-33.7,57.1-39.6
			c9.6-2.6,19.4-5.6,29.2-7c8.9-1.2,21.8-5.4,30.5-3.5c8.5,1.8,18.5,6.5,26.7,9.9c10.4,4.3,20.6,8.2,30.6,13.7
			c11.2,6.1,20.7,14.6,29.2,24c4.5,5,14.2,21.5,16.3,9.9c0.9-5-2.1-11.2-2.3-16.1c-0.2-4.4,1-8.9,1.8-13.2c1.5-9,0.6-18.3,8.4-24.2
			c10.1-7.6,26.8-4,38.5-4.3c13.4-0.4,26.6-0.9,40-0.3c11.9,0.5,22.8,1.4,34.7-0.1c10.5-1.3,26.3-0.2,33.7,8.4
			c15.6,18.2-4.3,48.4,13,67.5c7.9,8.7,17.8,15.6,25.4,25c1.5,1.9,6.1,10.4,9.9,8.9c3.5-1.4,1-15.9,0.8-18.2
			c-0.5-10.3,1.5-19.9,1.6-30.3c0-12.2-2.1-25.6-1.7-37.9c0.7-26.1,46.6-18.3,64.1-19.9c23.9-2.2,47.7-3.3,71.6-3.2
			c22.6,0.1,45.5,0.4,67.6,2.7c6.9,0.7,14.2,1.5,21,3c11.5,2.5,16.6,13.9,18.7,24.5c5,24.8-2,50-2.2,74.9c-0.2,20.5,1.1,40.5,0,60.8
			c-1.3,25.2,1.7,51.6-2.1,76.5c-1.1,7-4.1,18.5-10.1,22.6c-9,6.2-28.8,1.7-39.1,1.5c-18.6-0.4-56.5,10.3-67.6-11
			c-9.7-18.5-8.2-45-8.2-65.1c0-12.3-0.4-24.3-1.8-36.4c-0.9-7.7,0.5-23.3-7.1-26.1c-5.2-1.9-14.2-0.3-19.7-0.5
			c-6.9-0.3-13.9-0.7-20.8-1.3c-11-1-22.4-2.6-33.5-2.2c-15.8,0.6-8.9,6.4-0.6,14.5c8.7,8.5,16.2,17.8,21,29
			c8.5,19.9,6.7,39.1,6.3,60.2c-0.2,11.6,4,24.5-0.1,35.9c-4.8,13.5-14.3,15.9-27.7,16.4c-24.3,1-47.9-1.9-72.1-2
			c-10,0-19.5,0.2-29.1,0c-3-0.1-8.2-0.4-11.2-1.4c-5-1.7-4.9-3.3-8.5-6.2c-3.4-2.7-6-1.1-7.8-6.1c-1.5-4.2,1.6-9.8,1.7-14
			c0.3-11.1-1-22.4-1-33.7c0-6.1,2.2-14.9,0.8-20.8c-1.3-5.2-7.8-11.4-11.1-15.6c-6.1-7.7-14.7-12.3-23.6-16.4
			c-10.1-4.6-19.7-7.5-28.7-14c-3.9-2.9-8.1-4.4-12.1-7.1c-4.7-3.2-4.2-6.7-8.6-1.9c-7.2,7.9-3.1,27.2-4.3,36.6
			c-1.4,10.3-4.5,21.7-9.2,31c-11.6,22.9-36.7,33-58.3,43.9c-11.6,5.8-25.1,13.2-37.7,16.4c-12.6,3.3-27.1,2.2-39.9,1
			c-21.2-2-46.9-11.2-64.3-23.8c-9.1-6.6-18.2-14.2-26.2-22.1c-5.7-5.6-7.9-10.2-11.4-17.3c-1-2-5.1-12.2-8.4-11.8
			c-4.4,0.6-1,49.2-7.1,55.2c-5.5,5.4-17.1,4.7-24.3,5.8c-8.7,1.4-17.4,1-26.3,1.7c-19.1,1.6-38.1,1.2-57.5,2.1
			C164.8,275,174,229.2,174,211.1z"/>
		<path id="XMLID_98_" d="M155,57.4c0,12.8-0.9,25.8,0.8,38.4c1.2,9.1,2.4,18.7,2.2,28.4c-0.4,21,4,42.8,4,64.4
			c0,15.8,0,31.6,0,47.4c0,10.7,4,32.9-9.2,37.8c-10.5,3.9-29.2,0.8-40.2,0c-13.2-1-26.6-1.3-39.8-2.2c-12.9-0.9-26.8,2-39.5,0.4
			c-14.2-1.7-17.7-11-18.3-24.3c-0.5-10.6-4-21.5-3.9-31.8c0.1-13.1,1.7-26.4,1.7-39.7c0.1-27.4,1.6-55.4-0.6-82.8
			c-1-12.3-1-24.7-2-37.1C9.6,47,3.2,27.4,10.8,19.8c4.5-4.5,14.8-3.6,20.6-4.5c7.9-1.3,15.8-3.2,23.8-4.3
			c16.4-2.4,34.9-1.7,51.5-0.9c13,0.6,31.2,1.1,42.9,7.5C160.1,23.1,155,46.2,155,57.4z"/>
	</g>
</g>
</svg>
